<svg xmlns="http://www.w3.org/2000/svg"  width="48" height="48" viewBox="0 0 48 48">
	<path d="M45.7408,25.9247H37.6575V22.5734a24.06087,24.06087,0,0,0,5.3079-.7909,1.39516,1.39516,0,0,0,.338-2.5555,10.16534,10.16534,0,0,1-1.2421-.8563c.0698-.0178.1391-.036.2084-.0546a1.34208,1.34208,0,0,0,.325-2.4584,8.83649,8.83649,0,0,1-1.0782-.7428,1.34209,1.34209,0,0,0,.1446-2.3971,8.44631,8.44631,0,0,1-1.1325-.7803,4.39463,4.39463,0,0,0,.6759-.3161,1.34779,1.34779,0,0,0,.5642-.6408,1.34117,1.34117,0,0,0-.7159-1.75693A5.86806,5.86806,0,0,1,38.3913,6.7348a1.79628,1.79628,0,0,0-3.3425,0A5.88826,5.88826,0,0,1,32.417,9.21111a1.34167,1.34167,0,0,0-.1811,2.41059,4.39779,4.39779,0,0,0,.6754.3159,8.42845,8.42845,0,0,1-1.0873.7541,1.34225,1.34225,0,0,0,.0995,2.4232,8.89814,8.89814,0,0,1-1.053.7283,1.34219,1.34219,0,0,0,.2999,2.473q.1038.02775.2083.0546a10.19049,10.19049,0,0,1-1.2145.8401,1.39523,1.39523,0,0,0,.3096,2.5714,24.06492,24.06492,0,0,0,5.3086.7911v3.3513H32.7882a4.916,4.916,0,0,1-2.4938-.5938l-7.4309-4.6886V16.9762a24.07033,24.07033,0,0,0,5.3082-.7909,1.39512,1.39512,0,0,0,.3377-2.5554,10.15353,10.15353,0,0,1-1.2421-.8562q.1047-.02685.2085-.0547a1.3421,1.3421,0,0,0,.3249-2.4584,8.82832,8.82832,0,0,1-1.0782-.74274,1.342,1.342,0,0,0,.1445-2.397,8.45075,8.45075,0,0,1-1.1325-.78028,4.40325,4.40325,0,0,0,.6759-.31612,1.34833,1.34833,0,0,0,.5641-.64078,1.34125,1.34125,0,0,0-.7159-1.75706,5.86754,5.86754,0,0,1-2.6615-2.48887A1.99469,1.99469,0,0,0,21.926,0a1.99522,1.99522,0,0,0-1.6713,1.13784,5.88756,5.88756,0,0,1-2.6318,2.47622,1.34167,1.34167,0,0,0-.181,2.41058,4.41414,4.41414,0,0,0,.6754.31594,8.40562,8.40562,0,0,1-1.0872.75394,1.34243,1.34243,0,0,0,.0993,2.42334,8.87207,8.87207,0,0,1-1.0529.72814,1.34223,1.34223,0,0,0,.2992,2.4729c.0694.0185.1391.0369.209.0547a10.196,10.196,0,0,1-1.2146.8402,1.39524,1.39524,0,0,0,.3097,2.5713,24.06748,24.06748,0,0,0,5.3088.791V19.459l-1.1349-.7161a4.61909,4.61909,0,0,0-2.4397-.7428H2.25909A2.258,2.258,0,0,0,0,20.2518V45.7482A2.258,2.258,0,0,0,2.25909,48H45.7408a2.258,2.258,0,0,0,2.2591-2.2518V28.1765A2.258,2.258,0,0,0,45.7408,25.9247ZM32.0317,20.2288a18.31325,18.31325,0,0,0,2.0097-1.7226.93751.93751,0,0,0-.5026-1.5994q-.3528-.0567-.7027-.1267a18.17432,18.17432,0,0,0,1.7685-1.56.93746.93746,0,0,0-.5793-1.6038q-.0963-.0078-.1918-.018a8.75514,8.75514,0,0,0,1.7023-1.6979.93754.93754,0,0,0-.7076-1.4973,5.75526,5.75526,0,0,1-.5923-.0555,8.43116,8.43116,0,0,0,2.3886-2.59618c.0366-.05681.0683-.10415.0957-.14353.0274.03938.0591.08663.0957.14353a8.43046,8.43046,0,0,0,2.3882,2.59618,5.77772,5.77772,0,0,1-.5919.0555.93758.93758,0,0,0-.7076,1.4973,8.74917,8.74917,0,0,0,1.7023,1.6978c-.0641.0069-.1279.0129-.1918.0181a.93746.93746,0,0,0-.5793,1.6038,18.19027,18.19027,0,0,0,1.7684,1.56q-.34935.06975-.7027.1266a.93766.93766,0,0,0-.5026,1.5995,18.33268,18.33268,0,0,0,2.0097,1.7227,22.43511,22.43511,0,0,1-3.7508.4679v-3.063a.9375.9375,0,0,0-1.875,0v3.063A22.42573,22.42573,0,0,1,32.0317,20.2288Zm-15.1708-9.321-.0005-.0001.0023.0006Zm.3768,3.7239a18.32411,18.32411,0,0,0,2.0097-1.7226.93762.93762,0,0,0-.5027-1.5995q-.3528-.05685-.7027-.1267a18.18217,18.18217,0,0,0,1.7685-1.56.93757.93757,0,0,0-.5794-1.60387q-.0963-.00788-.1918-.0181a8.75837,8.75837,0,0,0,1.7023-1.69781A.93743.93743,0,0,0,20.034,4.8059a5.77684,5.77684,0,0,1-.5924-.0555,8.43041,8.43041,0,0,0,2.3886-2.59612c.0368-.05691.0684-.10416.0957-.14353.0274.03928.0591.08662.0957.14343A8.42857,8.42857,0,0,0,24.4098,4.7504a5.79186,5.79186,0,0,1-.5919.0555.93753.93753,0,0,0-.7075,1.49737A8.74652,8.74652,0,0,0,24.8126,8.001q-.09615.01028-.1917.0181a.93742.93742,0,0,0-.5794,1.60378,18.18522,18.18522,0,0,0,1.7684,1.56q-.3495.06975-.7027.1266a.93763.93763,0,0,0-.5026,1.5995,18.32458,18.32458,0,0,0,2.0098,1.7226,22.41534,22.41534,0,0,1-3.7509.4678v-3.063a.9375.9375,0,0,0-1.875,0v3.063A22.39714,22.39714,0,0,1,17.2377,14.6317ZM1.875,23.9065H16.1953a2.72922,2.72922,0,0,1,1.3908.4221l.033.0218,10.4562,6.5975a6.93549,6.93549,0,0,0,3.4943.8832H46.1248v7.975H31.5695a6.49993,6.49993,0,0,1-2.5927-.4645L18.535,34.3922a5.52441,5.52441,0,0,0-2.3398-.5392H1.875Zm.38409-4.0314H17.414a2.72893,2.72893,0,0,1,1.3908.4222l.033.0218,10.4563,6.5976a6.93612,6.93612,0,0,0,3.4943.883H45.7409a.381.381,0,0,1,.3841.3768v1.7796H31.5695a4.91617,4.91617,0,0,1-2.4939-.5938l-10.441-6.5879a4.6185,4.6185,0,0,0-2.4395-.7429H1.875V20.2519A.381.381,0,0,1,2.25909,19.8751ZM45.7408,46.125H2.25909a.38091.38091,0,0,1-.38409-.3768V44.2499H6.72355a.9375.9375,0,1,0,0-1.875H1.875v-6.647H16.1952a3.64926,3.64926,0,0,1,1.4918.3365l.0307.0153L28.1739,41.036a8.59709,8.59709,0,0,0,3.3957.6451H46.1248v4.0672A.38067.38067,0,0,1,45.7408,46.125Z" fill="#c8ac5c"/>
	<path d="M7.03162,28.3557a.9375.9375,0,1,0,0-1.875H7.031a.9375.9375,0,1,0,.00065,1.875Z" fill="#c8ac5c"/>
	<path d="M13.5004,31.1682a.9375.9375,0,0,0,0-1.875h-.0007a.9375.9375,0,1,0,.0007,1.875Z" fill="#c8ac5c"/>
	<path d="M21.5629,31.1682a.9375.9375,0,0,0,0-1.875h-.0007a.9375.9375,0,1,0,.0007,1.875Z" fill="#c8ac5c"/>
	<path d="M27.3754,36.2307a.9375.9375,0,0,0,0-1.875h-.0007a.9375.9375,0,1,0,.0007,1.875Z" fill="#c8ac5c"/>
	<path d="M34.6879,35.6213a.9375.9375,0,0,0,0-1.875h-.0007a.9375.9375,0,1,0,.0007,1.875Z" fill="#c8ac5c"/>
	<path d="M42.0004,37.8245a.9375.9375,0,0,0,0-1.875h-.0007a.9375.9375,0,1,0,.0007,1.875Z" fill="#c8ac5c"/>
	<path d="M10.9453,42.375a.9375.9375,0,0,0,0,1.875h.0007a.9375.9375,0,1,0-.0007-1.875Z" fill="#c8ac5c"/>
</svg>
