<svg xmlns="http://www.w3.org/2000/svg" width="146" height="194" fill="none" viewBox="0 0 145.44 193.04">
	<path d="M72.88535,189.8945a11.78424,11.78424,0,0,1-5.0464-1.074l-57.4134-25.628a12.42832,12.42832,0,0,1-7.3634-11.326V66.2224a1.63641,1.63641,0,0,1,.4975-1.158l8.935-9.837L15.72,46.6302a1.80666,1.80666,0,0,1,.4138-.6624l15.8009-15.5407a1.93343,1.93343,0,0,1,1.7374-.4138l5.5424,1.6521a2.08291,2.08291,0,0,1,.5796.332c.0822,0,.0822.0818.1658.0818l.0822.0834.1658.1652,3.1432,4.4638,1.1577,1.2399,7.3634-10.5813a1.82163,1.82163,0,0,1,1.3236-.7427l3.061-.1667,3.3927-7.6059a1.727,1.727,0,0,1,.248-.4123L70.07235,6.5347a2.25133,2.25133,0,0,1,.4959-.4138l5.29439-2.9753.74551-.2486h.1658c.248,0,.4138.0834.5781.0834.0837,0,.0837,0,.1674.0818l.0806.0834c.2495.1652.4138.247.4975.4956l8.6868,12.1531,5.377,1.4051a1.63749,1.63749,0,0,1,.992.6608l9.596,13.8068,6.786-7.1922a1.96041,1.96041,0,0,1,.908-.4971l4.468-1.0747a3.57081,3.57081,0,0,1,.414-.0818h.248c.164,0,.248,0,.33.0818.084,0,.084.0834.166.0834.082.0819.166.0819.248.1652.082,0,.082.0819.166.0819l.082.0833c.084.0819.084.0819.084.1652l.082.0834,6.618,9.9189,3.475,1.3232a2.53859,2.53859,0,0,1,.578.4138l.083.0819.082.0833,7.53,10.4994c.082.1653.164.2471.248.4123l6.949,18.8496a1.41515,1.41515,0,0,1,.082.579v86.2237a12.4229,12.4229,0,0,1-7.363,11.325l-57.41181,25.628A10.69555,10.69555,0,0,1,72.88535,189.8945ZM33.17615,30.8394a.75141.75141,0,0,0-.5782.2485L16.79555,46.712l-.0045.0046c-.0807.0818-.1613.1636-.1613.244l-3.309,8.8458-9.0993,9.837a.71183.71183,0,0,0-.248.4956v85.8115a11.4107,11.4107,0,0,0,6.7838,10.416l57.4118,25.628a11.32542,11.32542,0,0,0,9.2652,0l57.4151-25.628a11.4135,11.4135,0,0,0,6.784-10.416V66.2209a.30032.30032,0,0,0-.084-.2471l-6.948-18.848a.29016.29016,0,0,0-.084-.1667l-7.528-10.4979-.083-.0834.248-.4123-.33.3305c-.083-.0834-.166-.1668-.248-.1668l-3.807-1.4854-6.782-10.2523-.084-.0834-.082-.0818-.084-.0834h-.248v-.4956l-.082.4956h-.248l-4.468,1.0762a.46155.46155,0,0,0-.243.0643.45582.45582,0,0,0-.171.1827l-7.61,8.0182-10.26-14.795a.81007.81007,0,0,0-.414-.3304l-5.708-1.4884L77.35054,4.4703l-.248-.2486h-.0822c-.0836,0-.1658-.0833-.2479-.0833l-.0837-.4957v.4957c-.1643,0-.248,0-.3301.0833l-5.2944,2.9754c-.0837.0834-.1674.0834-.248.1667l-10.0927,11.903c-.0837.0834-.0837.0834-.0837.1667l-3.6391,8.1016-3.7228.1652a.69562.69562,0,0,0-.5797.3304l-8.1088,11.4907-2.0676-2.2326-3.309-4.7109c-.0821-.0834-.1643-.1667-.2479-.1667l-5.5424-1.6522a.30541.30541,0,0,1-.248.0819Z" fill="#fff" />
	<path d="M72.88525,193.0365a15.0619,15.0619,0,0,1-6.2878-1.323l-57.4118-25.628a15.52769,15.52769,0,0,1-9.183-14.135V66.2209a4.90964,4.90964,0,0,1,1.3236-3.3043l8.5196-9.3429,2.9789-8.0182a4.92483,4.92483,0,0,1,1.1577-1.737L29.785,28.1944a4.82859,4.82859,0,0,1,3.3911-1.405,4.21833,4.21833,0,0,1,1.4073.247l5.5423,1.6537a6.25232,6.25232,0,0,1,1.6537.826c.1674.1668.3317.2486.4139.4138a2.22832,2.22832,0,0,1,.5781.6624l1.6552,2.3145,5.0464-7.1087a4.78047,4.78047,0,0,1,3.7228-2.0675l1.2414-.0833,2.6472-5.8689a3.46959,3.46959,0,0,1,.7455-1.158L68.00475,4.634a4.20923,4.20923,0,0,1,1.3236-1.0761L74.62265.5825a4.58,4.58,0,0,1,2.0691-.579h.5781a3.25723,3.25723,0,0,1,1.1593.2486c.248.0833.4123.1667.6603.2486l.4974.1652.248.247a5.60076,5.60076,0,0,1,.992.9928l8.0255,11.2421,4.302,1.1581a5.30467,5.30467,0,0,1,2.729,1.9007l7.364,10.6646,4.136-4.3804a5.43912,5.43912,0,0,1,2.4-1.4066l4.466-1.0747a4.77842,4.77842,0,0,1,1.076-.0818h.248a1.23176,1.23176,0,0,1,.578.0818,2.39513,2.39513,0,0,1,.746.1668.9085.9085,0,0,1,.496.247,1.81626,1.81626,0,0,1,.661.4138c.084.0819.248.1652.332.2471.082.0833.248.1667.33.3319l.248.2471.084.0833.248.3305,6.04,9.1762,2.563.9912a5.16731,5.16731,0,0,1,1.821,1.2414,2.19762,2.19762,0,0,1,.412.4957l7.446,10.4979a5.10152,5.10152,0,0,1,.58,1.158l6.949,18.848a5.3707,5.3707,0,0,1,.33,1.6536v85.8115a15.526,15.526,0,0,1-9.183,14.135l-57.4129,25.628A13.72594,13.72594,0,0,1,72.88525,193.0365Zm5.626-2.728,57.4131-25.628a13.98038,13.98038,0,0,0,8.272-12.814V66.2224a2.63176,2.63176,0,0,0-.248-1.158l-6.948-18.848a3.88821,3.88821,0,0,0-.414-.8276l-7.529-10.4964a1.09255,1.09255,0,0,0-.248-.3304l-.164-.1667a3.47059,3.47059,0,0,0-1.16-.7427l-2.977-1.1581-6.206-9.5066-.164-.2486-.084-.0818c-.082-.0834-.082-.1667-.166-.2486-.082-.0833-.164-.1667-.247-.1667-.083-.0819-.165-.0819-.248-.1637-.166-.0834-.331-.2486-.496-.2486-.083-.0818-.248-.0818-.332-.1652a3.455,3.455,0,0,0-.578-.1652.50425.50425,0,0,1-.332-.0819h-.166a2.309,2.309,0,0,0-.744.0819l-4.466,1.0761a3.08,3.08,0,0,0-1.656.9913l-5.376,5.7037-8.439-12.1531a3.36091,3.36091,0,0,0-1.902-1.3217l-4.882-1.3232L79.58685,2.8167a2.35138,2.35138,0,0,0-.8276-.7442l-.1658-.1668-.3301-.1637c-.1659-.0833-.248-.0833-.4139-.1667a2.94141,2.94141,0,0,0-.8276-.1637h-.4138a2.79739,2.79739,0,0,0-1.4057.4123L69.908,4.8008a4.013,4.013,0,0,0-.9113.7427L58.82175,17.6147a2.71945,2.71945,0,0,0-.496.8261l-3.061,6.6964-2.069.0819a3.36424,3.36424,0,0,0-2.56351,1.4066l-6.20569,8.8457-2.813-4.0515c-.1643-.1667-.248-.3304-.4123-.4138l-.248-.2471a3.04744,3.04744,0,0,0-1.1592-.579l-5.5424-1.6536a4.12718,4.12718,0,0,0-.9934-.1668,3.32336,3.32336,0,0,0-2.3992.9928L14.976,44.8947a3.28443,3.28443,0,0,0-.8276,1.2398l-3.061,8.2668-8.7692,9.5081a3.39565,3.39565,0,0,0-.9098,2.3145v85.72759a14.06922,14.06922,0,0,0,8.2732,12.814l57.41339,25.626a13.62619,13.62619,0,0,0,5.70821,1.24,14.80053,14.80053,0,0,0,5.7081-1.321Z" fill="#fff" />
	<path d="M15.22245,56.6324l3.2268-8.6805,15.057-14.8799,3.4748,1.0747L30.11355,47.291l-2.069,1.2399c-.1644.0818-3.3075,1.9841-3.3912,2.1493l-7.1139,9.4247-7.8594,2.8102,5.3781-5.8689C15.05815,56.8795,15.14025,56.7976,15.22245,56.6324ZM58.656,28.8553l3.8034-8.432L72.38784,8.7674l3.39261-1.9022-.0837,5.787L72.222,13.7284c-.4123.247-1.9017,2.313-.3301,2.8101.4959.1652-4.8806,3.224-4.38461,3.3058l8.3554-1.2399V29.2691L65.76985,27.2016a1.20534,1.20534,0,0,0-.7455.4972l-4.383,5.787-5.7919,1.4051a1.33434,1.33434,0,0,0-.5781.3304L41.36555,48.7795l4.3846-7.1921,8.2717-11.7393,3.5585-.1668A1.5603,1.5603,0,0,0,58.656,28.8553Zm65.7684,8.5972,4.881,7.1102-1.655,2.8102-1.076,7.6059-4.301,4.9609,1.985-6.1174a1.38116,1.38116,0,0,0-.083-.9928l-1.986-3.8848a1.31832,1.31832,0,0,0-1.157-.6624,1.03633,1.03633,0,0,0-.496.0834l-4.882,1.9007,4.138-4.2152a1.25262,1.25262,0,0,0,.33-.9095V41.0902l2.813-4.2152,1.488.5775Zm-10.756-10.8284-.992,3.6378a1.38319,1.38319,0,0,0,.33,1.2383l1.738,1.737-5.708,3.7196c-.248.1667,6.453,3.1421,6.37,3.471v3.2255l-3.393,3.9681-12.822,2.2327,3.145-7.4422a1.31852,1.31852,0,0,0-.166-1.2383,1.41544,1.41544,0,0,0-1.076-.579h-.082l-3.558,1.3232,14.065-14.798Zm-27.879-2.2326a1.34387,1.34387,0,0,0,.414-.7427l.745-4.5472,3.226.8261,7.777,11.4907-9.845-.4138c-.166.0833-.745-.0819-4.219-.5775l1.572,4.4638L80.165,29.4343Zm38.634,13.061,4.882,7.1102-1.655,2.8102ZM10.92305,146.9075v-6.613H12.659v6.943c0,1.489.5781,2.233,1.6552,2.233,1.0741,0,1.6537-.744,1.6537-2.233v-10.334a2.62768,2.62768,0,0,0-.4959-1.901,2.11517,2.11517,0,0,0-1.5716-.413h-1.9032v-.992h1.8195a2.5619,2.5619,0,0,0,1.5731-.413,2.62713,2.62713,0,0,0,.496-1.901v-8.434c0-1.487-.5781-2.314-1.6553-2.314-1.0756,0-1.6537.744-1.6537,2.314v6.201h-1.7374v-6.035a3.73746,3.73746,0,0,1,.7455-2.645,3.74811,3.74811,0,0,1,2.6472-.743,3.7557,3.7557,0,0,1,2.6471.743,3.74508,3.74508,0,0,1,.744,2.645v7.854a4.45526,4.45526,0,0,1-.3317,2.066,2.44934,2.44934,0,0,1-1.7374,1.158c.9098.249,1.491.579,1.7374,1.158a4.628,4.628,0,0,1,.3317,2.149v9.507a3.60529,3.60529,0,0,1-.7455,2.645,3.75529,3.75529,0,0,1-2.6472.744,3.7577,3.7577,0,0,1-2.6471-.744,4.24821,4.24821,0,0,1-.6618-2.645Zm10.257,0v-23.892a3.74508,3.74508,0,0,1,.744-2.645,3.75347,3.75347,0,0,1,2.6472-.743,3.75051,3.75051,0,0,1,2.6471.743,3.74471,3.74471,0,0,1,.7455,2.645v23.892a3.60529,3.60529,0,0,1-.7455,2.645,3.75517,3.75517,0,0,1-2.6471.744,3.75546,3.75546,0,0,1-2.6472-.744,3.74645,3.74645,0,0,1-.7455-2.645Zm1.8196-24.14v24.47c0,1.489.5781,2.233,1.6537,2.233s1.6553-.744,1.6553-2.233v-24.47c0-1.488-.5781-2.314-1.6553-2.314C23.49715,120.45351,22.99965,121.2795,22.99965,122.7675Zm10.2601,27.28H29.785v-1.074h1.6537v-25.627a3.61474,3.61474,0,0,1,.7455-2.646,3.7508,3.7508,0,0,1,2.6472-.743H38.224v30.09h-1.7374v-29.182h-1.6552q-1.7367,0-1.7374,2.233v26.949Zm8.5212-3.14v-23.892a3.73746,3.73746,0,0,1,.7455-2.645,3.74548,3.74548,0,0,1,2.6471-.743,3.756,3.756,0,0,1,2.6472.743,3.74508,3.74508,0,0,1,.744,2.645v23.892a3.60529,3.60529,0,0,1-.7455,2.645,3.75563,3.75563,0,0,1-2.6472.744,3.75563,3.75563,0,0,1-2.6472-.744,3.747,3.747,0,0,1-.7454-2.645Zm1.7374-24.14v24.47c0,1.489.5781,2.233,1.6537,2.233s1.6553-.744,1.6553-2.233v-24.47c0-1.488-.5797-2.314-1.6553-2.314S43.51835,121.2795,43.51835,122.7675Zm11.1653,27.28h-1.8196v-29.017h-2.565v-1.074h6.9496v1.076h-2.565Zm4.304-3.14v-23.892a3.73748,3.73748,0,0,1,.74541-2.645,3.751,3.751,0,0,1,2.6472-.743,3.756,3.756,0,0,1,2.6472.743,3.74519,3.74519,0,0,1,.7455,2.645v23.892a3.61245,3.61245,0,0,1-.7455,2.645,3.76069,3.76069,0,0,1-2.6472.744,3.75563,3.75563,0,0,1-2.6472-.744A3.73921,3.73921,0,0,1,58.98764,146.9075Zm1.73741-24.14v24.47c0,1.489.5781,2.233,1.6552,2.233,1.0756,0,1.6537-.744,1.6537-2.233v-24.47c0-1.488-.5781-2.314-1.6537-2.314S60.72505,121.2795,60.72505,122.7675Zm13.8976,27.28v-25.214l-2.3155,8.102a26.46092,26.46092,0,0,0-1.1577,4.051v13.145h-1.6538v-30.092h1.6538v13.971l3.8049-13.971h1.4073v30.092h-1.739Zm.9935-34.141v.826a2.23328,2.23328,0,0,1-.8261,1.819,2.80586,2.80586,0,0,1-3.805.001,2.23293,2.23293,0,0,1-.82761-1.819v-.827h1.32361a4.51342,4.51342,0,0,0,.1643,1.405,1.19758,1.19758,0,0,0,1.2415.661q1.4901,0,1.4894-1.24v-.826Zm12.4922,34.141v-26.701a3.61046,3.61046,0,0,1,.745-2.646,3.75111,3.75111,0,0,1,2.647-.743h3.392v30.09h-1.739v-15.293h-3.309v15.293h-1.736Zm1.737-16.45h3.309v-12.732h-1.655q-1.737,0-1.738,2.233v10.499Zm13.648-13.641h1.738l-2.813,13.641c1.821,0,2.814,1.157,2.814,3.389v12.98h-1.739v-13.228a3.56266,3.56266,0,0,0-.248-1.654,1.61569,1.61569,0,0,0-1.488-.661h-1.655v15.624h-1.737v-30.091h1.737v13.641h.91Zm7.444,30.091h-1.819v-29.017h-2.562v-1.074h6.948v1.076h-2.564v29.015Zm9.681,0v-25.214l-2.316,8.102a26.52251,26.52251,0,0,0-1.159,4.051v13.145h-1.654v-30.092h1.654v13.971l3.807-13.971h1.405v30.092h-1.737Zm8.521,0h-3.225v-30.091h3.225a4.65574,4.65574,0,0,1,2.813.662,3.47856,3.47856,0,0,1,.746,2.645v7.441a6.88076,6.88076,0,0,1-.25,2.149,2.04729,2.04729,0,0,1-1.572,1.24,1.92058,1.92058,0,0,1,1.572,1.24,6.54866,6.54866,0,0,1,.248,2.149v9.176c0,1.324-.248,2.233-.826,2.645A3.85279,3.85279,0,0,1,129.13935,150.0475Zm-.33-29.264h-1.159v12.814h1.241a2.19166,2.19166,0,0,0,1.655-.497,2.41887,2.41887,0,0,0,.496-1.735v-8.35a2.95364,2.95364,0,0,0-.414-1.736A2.66217,2.66217,0,0,0,128.80935,120.78349Zm0,13.724h-1.159v14.714h1.241a2.20017,2.20017,0,0,0,1.655-.495,2.42616,2.42616,0,0,0,.496-1.737v-10.251a2.95818,2.95818,0,0,0-.414-1.736A2.66253,2.66253,0,0,0,128.80935,134.50749Zm-92.8203,24.882c0,.083-.0836.083-.1673.083h-1.2399v3.308c0,.081,0,.165-.1659.165h-.9919c-.0821,0-.1658,0-.1658-.165v-4.217c0-.082,0-.165.1658-.165h2.565c.0822,0,.0822,0,.0822.083v.082Zm3.557,1.819h-.1658v1.572c0,.081,0,.165-.1643.165h-.9935c-.1658,0-.1658,0-.1658-.165v-4.217c0-.082,0-.165.1673-.165h1.3236c.6603,0,.9919.083,1.2399.33a1.36859,1.36859,0,0,1,.4138.993A1.48115,1.48115,0,0,1,39.54605,161.2085Zm0-1.819h-.1658v.909h.1673c.4123,0,.4945-.165.4945-.495C40.04205,159.47251,39.87775,159.3895,39.54605,159.3895Zm4.5519,2.067-1.1593-2.81v-.083c0-.082,0-.082.1674-.082l.9083-.083h.0836c.0822,0,.0822,0,.0822.165l.3316,1.24c.0822.248.0822.413.248.909.1643-.579.1643-.826.248-.991l.248-1.158a.29047.29047,0,0,1,.0821-.165l.9935.083c.0821,0,.1658,0,.1658.082v.083l-.8276,2.976c-.3317,1.239-.8276,1.405-1.4894,1.405a3.35111,3.35111,0,0,1-.8276-.166c-.1644-.081-.1644-.081-.1644-.165v-.082l.248-.744a2.55337,2.55337,0,0,0,.5782.165c.2479,0,.4138-.083.4959-.413l.0837-.166Zm7.6099,1.489h-.9934c-.08221,0-.1659,0-.1659-.165v-3.308h-.7439v3.308c0,.165,0,.165-.1659.165h-.9919c-.0837,0-.1658,0-.1658-.165v-4.217c0-.082,0-.165.1658-.165h2.9773c.0837,0,.1674,0,.1674.165v4.217C51.87215,162.8615,51.79155,162.9455,51.70785,162.9455Zm5.5408,0h-.9919c-.0837,0-.1658,0-.1658-.165v-3.308h-.7455v3.308c0,.165,0,.165-.1643.165h-.9935c-.0821,0-.1643,0-.1643-.165v-4.217c0-.082,0-.165.1643-.165h2.9789c.0821,0,.1658,0,.1658.165v4.217C57.41455,162.8615,57.41455,162.9455,57.24865,162.9455Zm6.2072-.084c0,.084,0,.084-.1673.084h-1.0741c-.0837,0-.0837,0-.1674-.084l-.2464-.909H60.973l-.2479.909c0,.084,0,.084-.1659.084h-.9934c-.0822,0-.1643,0-.1643-.084v-.081l1.3236-4.217c0-.082,0-.082.1643-.082h.9934c.0822,0,.0822,0,.1658.082l1.4058,4.298h.0015Zm-1.9047-2.645c0-.165-.0822-.579-.0822-.744,0,.249-.0822.579-.0822.744l-.1658.745h.496l-.1643-.745Zm8.1925,2.645-1.1577.084a.08218.08218,0,0,1-.0837-.084v-4.298c0-.082,0-.082.0837-.082h1.1562c.0837,0,.0837,0,.0837.082v1.653h.248q.37185,0,.4974-.495l.0822-.414a1.19051,1.19051,0,0,1,1.1578-.909c.0836,0,.1658,0,.1658.083l.1658.661a.08147.08147,0,0,1-.0837.082l-.1643.083c-.1673,0-.2495.165-.3316.414l-.0822.33c-.0837.165-.1673.496-.4975.579a.78153.78153,0,0,1,.5797.661l.0821.331c.0837.33.1674.33.3317.413h.1658a.08044.08044,0,0,1,.0822.082l-.248.744c0,.084,0,.084-.1658.084-.4138,0-1.1578-.084-1.24151-.91l-.0821-.662a.3904.3904,0,0,0-.41379-.412h-.3302Zm7.2782-4.05a2.91068,2.91068,0,0,1,.5782,1.819,2.29552,2.29552,0,0,1-.5782,1.818,1.61592,1.61592,0,0,1-1.2414.497,1.51036,1.51036,0,0,1-1.2399-.497,2.90323,2.90323,0,0,1-.5797-1.818,2.297,2.297,0,0,1,.5782-1.819,1.61389,1.61389,0,0,1,1.2414-.497A1.51328,1.51328,0,0,1,77.02185,158.81149Zm-1.7374,1.901a2.38459,2.38459,0,0,0,.248,1.323.30682.30682,0,0,0,.248.082c.4975,0,.4975-.991.4975-1.405a3.18339,3.18339,0,0,0-.2495-1.323.30377.30377,0,0,0-.248-.082C75.36665,159.3075,75.28445,160.21649,75.28445,160.7125Zm8.6029,2.068c0,.081,0,.081-.165.081h-.9101c-.0822,0-.1659,0-.1659-.165v-1.488a5.77884,5.77884,0,0,1,.0837-1.157,8.32265,8.32265,0,0,0-.248.992l-.24949.744c0,.083-.0821.083-.1643.083h-.5796c-.0822,0-.0822,0-.1659-.083l-.1658-.744a5.64359,5.64359,0,0,0-.248-.992v2.645c0,.084,0,.165-.1643.165h-.9934c-.0822,0-.1659,0-.1659-.081l.248-4.217c0-.082,0-.165.1674-.165h.9919c.0822,0,.0822,0,.1643.083l.4138,1.24c.0837.165.0837.412.1674.577a1.52719,1.52719,0,0,0,.1643-.577l.4138-1.323c0-.084,0-.084.1643-.084h.9938c.082,0,.165,0,.165.167Zm5.379.165h-.992c-.084,0-.168,0-.168-.165v-3.308h-.744v3.308c0,.165,0,.165-.164.165h-.993c-.083,0-.166,0-.166-.165v-4.217c0-.082,0-.165.167-.165h2.977c.082,0,.166,0,.166.165v4.217C89.34935,162.8615,89.34935,162.9455,89.26635,162.9455Zm6.123-.084c0,.084,0,.084-.167.084h-1.074c-.084,0-.084,0-.166-.084l-.248-.909h-.828l-.248.909c0,.084,0,.084-.166.084h-.992c-.083,0-.167,0-.167-.084v-.081l1.325-4.217c0-.082,0-.082.166-.082h.992c.084,0,.084,0,.166.082l1.405,4.298h.002Zm-1.903-2.645c0-.165-.084-.579-.084-.744,0,.249-.082.579-.082.744l-.166.745h.496Zm7.196,2.729h-.994c-.082,0-.165,0-.165-.165v-1.654h-.827v1.654c0,.165,0,.165-.165.165h-.994c-.082,0-.164,0-.164-.165v-4.217c0-.082,0-.165.164-.165h.994c.082,0,.165,0,.165.165v1.57h.827v-1.57c0-.082,0-.165.167-.165h.992c.082,0,.166,0,.166.165v4.217c-.084.081-.084.165-.168.165Zm5.956-.084a.08227.08227,0,0,1-.084.084h-.992c-.082,0-.082,0-.082-.084v-1.653a4.40727,4.40727,0,0,1,.082-1.075q-.2235.67051-.496,1.323l-.579,1.405a.28493.28493,0,0,1-.166.084h-1.158c-.082,0-.082,0-.082-.084v-4.298c0-.082,0-.082.082-.082h.994c.082,0,.082,0,.082.082v1.323c0,.412-.084,1.157-.084,1.24a12.62349,12.62349,0,0,0,.498-1.24l.496-1.24c0-.083.082-.083.165-.083h1.158c.082,0,.082,0,.082.083v4.215Zm5.79,0a.08094.08094,0,0,1-.082.084h-.992c-.083,0-.083,0-.083-.084v-1.653a4.35606,4.35606,0,0,1,.083-1.075c-.083.249-.167.497-.497,1.323l-.578,1.405a.29328.29328,0,0,1-.168.084h-1.156c-.084,0-.084,0-.084-.084v-4.298c0-.082,0-.082.084-.082h.992c.084,0,.084,0,.084.082v1.323c0,.412-.084,1.157-.084,1.24a12.56926,12.56926,0,0,0,.496-1.24l.497-1.24c0-.083.083-.083.165-.083h1.159c.082,0,.082,0,.082.083v4.215h.082Zm-.578-5.703a.08032.08032,0,0,1,.082.082c0,.744-.909.909-1.24.909-.413,0-1.241-.247-1.241-.909a.08031.08031,0,0,1,.082-.082l.578-.084h.084a.08227.08227,0,0,1,.084.084v.082c.082.166.164.331.413.331a.42162.42162,0,0,0,.413-.331v-.082a.082.082,0,0,1,.083-.084ZM48.81115,60.6824a.8841.8841,0,0,1-.0821-1.1565l1.4894-1.4884a.70749.70749,0,0,1,1.0756,0l.0821.0834Zm6.6195,7.0284,37.22769,37.2007a.25678.25678,0,0,0,.165.061.2335.2335,0,0,0,.165-.392L55.76075,67.3789l.5797-.579,38.0559,38.0296a.89782.89782,0,0,1,0,1.238l-1.822,1.819a.89775.89775,0,0,1-1.239,0L53.278,69.8601l2.1512-2.1508Z" fill="#fff" />
	<path d="M129.30535,44.5627l-4.881-7.1102h-.001l3.227,9.9204Z" fill="#fff" />
	<path d="M33.01025,79.5305c4.1366-10.4979,8.5197-14.4661,12.492-18.4343l2.069-2.0659c3.9708-3.9681,7.94159-8.3501,18.4481-12.4835,3.309-1.3232,10.0928-3.3073,10.6709-2.8101.1673.1652.1673.3304.0837.4122-.0837.4138-4.1382,1.5719-6.122,2.3146A44.0895,44.0895,0,0,0,53.278,59.526c-1.5716,1.8188,1.3236,4.3804,1.4072,4.629l1.4894,1.4884a.62723.62723,0,0,1,.1644.3304.42621.42621,0,0,1-.1644.3305l-1.6552,1.6536-1.6537,1.6522a.62658.62658,0,0,1-.3317.1667.42563.42563,0,0,1-.3301-.1667l-1.491-1.4854c-.2464-.0834-2.8114-2.9769-4.631-1.4066a44.64909,44.64909,0,0,0-13.0716,17.3614c-.8276,1.984-1.9017,6.034-2.3155,6.117a.89306.89306,0,0,1-.4138-.083c-.5797-.496,1.4057-7.276,2.7293-10.582Zm34.6628-33.1489c-.9097-.0834-11.8301,4.629-16.62851,10.0038,0,0-.248.1637-.08219.3304.248.2471.3302,0,.3302,0a47.25359,47.25359,0,0,1,15.3049-9.837Zm-34.249,33.6459a46.505,46.505,0,0,1,9.8433-15.2935s.2495-.1667,0-.3304c-.1643-.1668-.3302.0818-.3302.0818-5.4602,4.7958-10.0927,15.7071-10.0106,16.6171Zm17.2067-20.4182,1.6552,1.6522s-.16581-1.487.3317-1.9008c.3301-.2485-2.565-.3304-1.9869.2471Zm-4.7163,6.4479c.4154-.4971,1.9048-.3304,1.9048-.3304l-1.6552-1.6537c-.5782-.579-.5782,2.3145-.248,1.9841Zm42.2739,1.8174L74.04155,82.0115a.23355.23355,0,0,1-.3301-.33l14.1469-14.1374-.579-.5775L73.21545,81.0205c-2.3171,2.314-1.8211,1.405-3.4748,3.059l-20.7652,20.748a.8988.8988,0,0,0,0,1.239l1.8211,1.819a.90154.90154,0,0,0,1.2399,0l20.8473-20.832c1.0756-1.075.1659-1.24,2.1512-3.224q7.2474-7.308,14.4774-14.6332Zm18.782,5.2095a55.24383,55.24383,0,0,0-9.101-11.9879l-2.069-2.0659a54.17964,54.17964,0,0,0-5.791-5.7052s-.745-.4122-1.653.579c-2.399,2.645-1.987,2.8117-1.987,2.8117.993,1.1565.993.3304,2.151,1.0747,3.227,2.1493.332,6.1174.25,6.2826l-1.491,1.487a.62716.62716,0,0,0-.165.3319.4266.4266,0,0,0,.166.3304l1.654,1.6522,1.655,1.6536a.627.627,0,0,0,.33.1667.42884.42884,0,0,0,.332-.1667l1.489-1.4869c.248-.0834,2.647-2.8117,4.633-1.4066,8.52,6.119,11.167,14.7158,11.582,14.7978a.91051.91051,0,0,0,.414-.082c.578-.497-.58-5.208-2.401-8.2664Z" fill="#fff" />
	<path d="M98.53235,63.7412s-.248-.1652,0-.3305a.64488.64488,0,0,1,.414-.1652c6.204,6.6965,8.768,12.07,9.017,13.393a66.68877,66.68877,0,0,0-9.432-12.8958Zm-47.6537,43.15429,21.5928-21.576s.8261-.084,0,.826l-20.435,20.419c-.99191.91-1.1562.331-1.1562.331Z" fill="#fff" />
</svg>
