<svg xmlns="http://www.w3.org/2000/svg" width="56" height="60" viewBox="0 0 56 60">
	<path d="M27.69361,23.125a6.88239,6.88239,0,1,0,4.8592,2.0158A6.875,6.875,0,0,0,27.69361,23.125Zm0,12a5.13055,5.13055,0,1,1,3.6223-1.5027A5.12539,5.12539,0,0,1,27.69361,35.125Z" fill="#c8ac5c"/>
	<path d="M30.69331,29.125a.87506.87506,0,0,0-.875.875,2.13708,2.13708,0,0,1-1.0595,1.838.8751.8751,0,0,0,.8815,1.512,3.89246,3.89246,0,0,0,1.928-3.35.87506.87506,0,0,0-.875-.875Z" fill="#c8ac5c"/>
	<path d="M50.30851,27.955a3.87357,3.87357,0,0,0,3.717-6.486c-.0635-.063-.131-.12-.2-.1785a7.74946,7.74946,0,0,0-.4765-6.103c-2.1-3.64-7.6145-4.8325-15.181-3.326C35.68151,4.5555,31.88951.375,27.69351.375S19.706,4.555,17.217,11.862c-7.568-1.5075-13.081-.3145-15.18048,3.325a7.7543,7.7543,0,0,0-.509,5.97A3.875,3.875,0,0,0,5.047,27.9145c.519.6905,1.08748,1.389,1.7,2.0885C1.66253,35.805-.062,41.1765,2.036,44.8125c1.5075,2.6135,4.77048,3.969,9.29148,3.969a30.5823,30.5823,0,0,0,5.8885-.646c2.4885,7.308,6.281,11.4895,10.4775,11.4895A7.79344,7.79344,0,0,0,33.14,57.063a3.873,3.873,0,0,0,4.2935-6.2855c-.063-.0635-.1305-.121-.197-.179.3275-.7745.641-1.6.937-2.463a30.5086,30.5086,0,0,0,5.886.646c4.5205,0,7.784-1.356,9.2915-3.969,2.1-3.636.3735-9.0075-4.71-14.809C49.231,29.33,49.788,28.645,50.30851,27.955Zm2.479-2.243a.699.699,0,1,1,.0005,0Zm-.9525-9.65a5.88373,5.88373,0,0,1,.4045,4.4,3.87251,3.87251,0,0,0-3.696,6.488c.063.0635.1305.1205.197.179q-.609.793-1.286,1.574a52.866,52.866,0,0,0-6.981-6.0805,53.51548,53.51548,0,0,0-1.77-9.0845c6.594-1.275,11.4705-.3555,13.1315,2.5235ZM36.988,46.091a50.13485,50.13485,0,0,1-7.139-2.3205c1.4925-.7215,2.979-1.5055,4.4375-2.3475,1.47-.85,2.8925-1.746,4.25-2.6735A50.088,50.088,0,0,1,36.988,46.091Zm-18.589,0a50.08936,50.08936,0,0,1-1.55-7.3415c1.361.9275,2.783,1.8245,4.2525,2.6735,1.457.842,2.942,1.627,4.437,2.3475A50.14119,50.14119,0,0,1,18.399,46.091Zm0-32.182a50.1054,50.1054,0,0,1,7.139,2.3205c-1.493.7215-2.979,1.5055-4.4375,2.35-1.47.85-2.8925,1.746-4.2525,2.6735A50.08291,50.08291,0,0,1,18.399,13.909Zm-3.7055,21.108A49.40327,49.40327,0,0,1,9.11251,30a49.45817,49.45817,0,0,1,5.581-5.017c-.1235,1.65-.189,3.3315-.189,5.017S14.569,33.365,14.69351,35.017Zm7.2835,4.89c-1.894-1.0935-3.7065-2.2675-5.4035-3.4885-.209-2.0955-.319-4.25-.319-6.4185s.11-4.3225.319-6.4185c1.6955-1.22,3.5085-2.3945,5.4035-3.4885,1.875-1.0835,3.797-2.0685,5.717-2.939,1.9215.871,3.843,1.856,5.718,2.939,1.894,1.0935,3.7065,2.2675,5.4035,3.4885.209,2.0955.319,4.25.319,6.4185s-.11,4.3225-.319,6.4185c-1.6955,1.22-3.5085,2.3945-5.4035,3.4885-1.875,1.0835-3.797,2.0685-5.717,2.939-1.9225-.871-3.844-1.856-5.719-2.939Zm15.012-26a50.08936,50.08936,0,0,1,1.55,7.3415c-1.361-.9275-2.783-1.8245-4.25-2.6735-1.4605-.84-2.9455-1.625-4.4405-2.3455A50.14119,50.14119,0,0,1,36.988,13.909Zm3.7045,11.076A49.39462,49.39462,0,0,1,46.27451,30a49.45817,49.45817,0,0,1-5.581,5.017c.1235-1.65.189-3.3315.189-5.017S40.818,26.635,40.69351,24.983Zm-13-22.858c3.319,0,6.5565,3.7645,8.7575,10.1125a53.67015,53.67015,0,0,0-8.758,3,53.62752,53.62752,0,0,0-8.757-3C21.13751,5.889,24.37451,2.125,27.69351,2.125ZM2.408,25.712a.74554.74554,0,1,1-.0005,0Zm4.24248-4.243A3.87517,3.87517,0,0,0,3.139,20.4145a5.80821,5.80821,0,0,1,.4125-4.35c1.6615-2.8805,6.538-3.8,13.132-2.5245a53.56144,53.56144,0,0,0-1.7705,9.085A52.83458,52.83458,0,0,0,7.93151,28.7q-.7305-.843-1.365-1.676c.0275-.026.057-.05.084-.0765a3.87844,3.87844,0,0,0,0-5.48Zm-3.1,22.4685c-1.657-2.876-.016-7.5605,4.38348-12.6375a52.86449,52.86449,0,0,0,6.9795,6.0775,53.52527,53.52527,0,0,0,1.77,9.0845c-6.5945,1.274-11.471.355-13.132-2.5245ZM36.196,55.02a2.12849,2.12849,0,1,1,.621-1.503A2.12826,2.12826,0,0,1,36.196,55.02Zm-1.5-5.3765a3.87346,3.87346,0,0,0-2.967,6.364,5.87723,5.87723,0,0,1-4.033,1.8675c-3.319,0-6.5565-3.7645-8.7575-10.1125a53.67015,53.67015,0,0,0,8.758-3,53.62722,53.62722,0,0,0,8.759,3c-.245.7025-.5,1.375-.767,2.0125a3.88234,3.88234,0,0,0-.995-.1315Zm17.142-5.706c-1.6615,2.88-6.538,3.8-13.132,2.5245a53.55163,53.55163,0,0,0,1.7705-9.085A52.82951,52.82951,0,0,0,47.453,31.3c4.3995,5.077,6.0405,9.7615,4.3825,12.6375Z" fill="#c8ac5c"/>
</svg>
